<svg xmlns="http://www.w3.org/2000/svg" xmlns:xlink="http://www.w3.org/1999/xlink" viewBox="0 0 50 50"><defs><clipPath id="clip-path"><path d="M50,25A25,25,0,1,1,25,0,25,25,0,0,1,50,25Z" style="fill:none"/></clipPath></defs><g id="Layer_2" data-name="Layer 2"><g id="Layer_1-2" data-name="Layer 1"><g style="clip-path:url(#clip-path)"><path id="bgimg" d="M50,25A25,25,0,1,1,25,0,25,25,0,0,1,50,25Z" style="fill:#346178"/><path d="M30.88,36.34a.76.76,0,0,1-.67-.67l-.86-9.78h-8.7l-.85,9.78a.79.79,0,0,1-.69.67l-.85.08h0a8.83,8.83,0,0,0,.79,1.3c.26.37.58.78,1,1.21a17.45,17.45,0,0,0,1.18,1.29c.42.42.86.82,1.29,1.18s.84.68,1.22.94a9.63,9.63,0,0,0,1.3.8h0a10.28,10.28,0,0,0,1.29-.79,14.41,14.41,0,0,0,1.22-.94c.43-.36.87-.76,1.29-1.18s.82-.86,1.19-1.29.68-.84.94-1.21a10,10,0,0,0,.79-1.3h0Z" style="fill:#fff"/><path d="M34.48,21.57c-.71-.44-1.76.41-2.33,1.89s-.47,3,.24,3.47,1.76-.41,2.34-1.89S35.2,22,34.48,21.57Z" style="fill:#fff"/><path d="M15.52,21.57c.71-.44,1.76.41,2.33,1.89s.47,3-.24,3.47-1.76-.41-2.34-1.89S14.8,22,15.52,21.57Z" style="fill:#fff"/><path d="M34.69,18.93c0,6.85-4.34,14.58-9.69,14.58s-9.69-7.73-9.69-14.58S19.65,8.71,25,8.71,34.69,12.08,34.69,18.93Z" style="fill:#fff"/><path d="M42.32,39.42c1.63,2.09,0,10.58,0,10.58H7.68s-1.62-8.49,0-10.58c1.45-1.88,7.7-2.71,10.58-3h0a8.83,8.83,0,0,0,.79,1.3c.26.37.58.78,1,1.21a17.45,17.45,0,0,0,1.18,1.29c.42.42.86.82,1.29,1.18s.84.68,1.22.94a9.63,9.63,0,0,0,1.3.8h0a10.28,10.28,0,0,0,1.29-.79,14.41,14.41,0,0,0,1.22-.94c.43-.36.87-.76,1.29-1.18s.82-.86,1.19-1.29.68-.84.94-1.21a10,10,0,0,0,.79-1.3h0C34.62,36.71,40.87,37.54,42.32,39.42Z" style="fill:#fff"/></g></g></g></svg>