<svg xmlns="http://www.w3.org/2000/svg" xmlns:xlink="http://www.w3.org/1999/xlink"
                    viewBox="0 0 50 50" class="img-fluid rounded-circle me-1" width="35">
                    <defs>
                      <clipPath id="clip-path">
                        <path d="M50,25A25,25,0,1,1,25,0,25,25,0,0,1,50,25Z" style="fill:none" />
                      </clipPath>
                    </defs>
                    <g id="Layer_2" data-name="Layer 2">
                      <g id="Layer_1-2" data-name="Layer 1">
                        <g style="clip-path:url(#clip-path)">
                          <path id="bgimg" d="M50,25A25,25,0,1,1,25,0,25,25,0,0,1,50,25Z" style="fill:#44b950" />
                          <path
                            d="M36.77,37.15,36.12,37c-.85-.16-1.69-.29-2.45-.39-1-.13-1.85-.21-2.46-.27l-.32,0a.77.77,0,0,1-.68-.67l-.86-9.78h-8.7l-.86,9.78a.69.69,0,0,1-.53.66l-.47,0c-.61.06-1.47.14-2.46.27-.76.1-1.6.23-2.45.39l-.64.12c-2.41.49-4.75,1.21-5.56,2.27C6.06,41.51,7.68,50,7.68,50H42.32s1.62-8.49,0-10.58C41.51,38.36,39.17,37.64,36.77,37.15Z"
                            style="fill:#fff" />
                        </g>
                        <path
                          d="M34.65,11.39,25,6.43l-11.12,5S15,26.5,10.57,29.8a24.72,24.72,0,0,0,13.69,4.49A24.72,24.72,0,0,0,38,29.8C33.53,26.5,34.65,11.39,34.65,11.39Z"
                          style="fill:#fff" />
                      </g>
                    </g>
                  </svg>